<svg width="68" height="53" viewBox="0 0 68 53" fill="none" xmlns="http://www.w3.org/2000/svg">
<g clip-path="url(#clip0)">
<path d="M26.2 52.3C11.7 52.3 0 40.6 0 26.2C0 11.7 11.7 0 26.2 0C40.6 0 52.3 11.7 52.3 26.2C52.3 28.4 52 30.5 51.5 32.4C51.3 33.2 50.5 33.6 49.8 33.4C49 33.2 48.6 32.4 48.8 31.7C49.3 30 49.5 28.1 49.5 26.2C49.5 13.3 39 2.8 26.2 2.8C13.3 2.8 2.8 13.3 2.8 26.2C2.8 39 13.3 49.5 26.1 49.5C30.9 49.5 35.5 48.1 39.4 45.3C40 44.9 40.9 45 41.4 45.7C41.8 46.3 41.7 47.2 41 47.7C36.6 50.7 31.5 52.3 26.2 52.3Z" fill="#2E276C"/>
<path d="M33.0998 30.1H19.2998V32.5H33.0998V30.1Z" fill="#2E276C"/>
<path d="M28.5998 27.9H19.2998V25.5H28.5998C31.1998 25.5 33.2998 23.4 33.2998 20.8C33.2998 18.2 31.1998 16.1 28.5998 16.1H22.8998V13.7H28.5998C32.4998 13.7 35.6998 16.9 35.6998 20.8C35.6998 24.7 32.4998 27.9 28.5998 27.9Z" fill="#2E276C"/>
<path d="M24.1998 13.9H21.7998V38.4H24.1998V13.9Z" fill="#2E276C"/>
<path d="M49.6996 46.8C49.2996 46.8 48.7996 46.6 48.5996 46.2L39.3996 33.7C38.8996 33.1 39.0996 32.2 39.6996 31.7C40.2996 31.2 41.1996 31.4 41.6996 32L49.5996 42.8L64.4996 19.7C64.8996 19 65.7996 18.9 66.4996 19.3C67.1996 19.7 67.2996 20.6 66.8996 21.3L50.8996 46.2C50.5996 46.5 50.1996 46.8 49.6996 46.8Z" fill="#2E276C"/>
</g>
<defs>
<clipPath id="clip0">
<rect width="67.1" height="52.3" fill="white"/>
</clipPath>
</defs>
</svg>
