<svg width="49" height="53" viewBox="0 0 49 53" fill="none" xmlns="http://www.w3.org/2000/svg">
<g clip-path="url(#clip0)">
<path d="M29.0004 13.5H9.80039C9.00039 13.5 8.40039 12.9 8.40039 12.1C8.40039 11.3 9.00039 10.7 9.80039 10.7H29.0004C29.8004 10.7 30.4004 11.3 30.4004 12.1C30.4004 12.9 29.7004 13.5 29.0004 13.5Z" fill="#2E276C"/>
<path d="M20.7004 19.5H9.80039C9.00039 19.5 8.40039 18.9 8.40039 18.1C8.40039 17.3 9.00039 16.7 9.80039 16.7H20.7004C21.5004 16.7 22.1004 17.3 22.1004 18.1C22.1004 18.8 21.5004 19.5 20.7004 19.5Z" fill="#2E276C"/>
<path d="M12.2 51.8H6.8C3 51.8 0 48.8 0 45V6.8C0 3 3 0 6.8 0H32C35.7 0 38.8 3 38.8 6.8V19.8C38.8 20.6 38.2 21.2 37.4 21.2C36.6 21.2 36 20.6 36 19.8V6.8C36 4.6 34.2 2.9 32 2.9H6.8C4.6 2.9 2.8 4.7 2.8 6.8V45C2.8 47.2 4.6 48.9 6.8 48.9H12.2C13 48.9 13.6 49.5 13.6 50.3C13.6 51.1 13 51.8 12.2 51.8Z" fill="#2E276C"/>
<path d="M22.1998 47C21.6998 47 21.2998 46.8 20.9998 46.3C19.5998 44 18.7998 41.4 18.7998 38.7C18.7998 30.8 25.1998 24.5 32.9998 24.5C33.4998 24.5 33.9998 24.5 34.3998 24.6C35.1998 24.7 35.7998 25.3 35.7998 26.1C35.6998 26.9 35.0998 27.5 34.2998 27.4C33.7998 27.4 33.3998 27.3 32.9998 27.3C26.6998 27.3 21.5998 32.4 21.5998 38.7C21.5998 40.8 22.1998 42.9 23.3998 44.8C23.7998 45.5 23.5998 46.3 22.9998 46.7C22.7998 46.9 22.4998 47 22.1998 47Z" fill="#2E276C"/>
<path d="M23.8997 48.6C23.7997 48.6 23.7997 48.6 23.6997 48.6L16.8997 47.3C16.2997 47.2 15.8997 46.6 15.9997 45.9C16.0997 45.3 16.6997 44.8 17.3997 45L22.9997 46L23.9997 40.5C24.0997 39.9 24.6997 39.4 25.3997 39.6C25.9997 39.7 26.3997 40.3 26.2997 41L24.9997 47.6C24.8997 47.9 24.7997 48.2 24.4997 48.3C24.3997 48.5 24.0997 48.6 23.8997 48.6Z" fill="#2E276C"/>
<path d="M31.8996 52.5C31.3996 52.5 30.9996 52.5 30.4996 52.4C29.6996 52.3 29.0996 51.7 29.0996 50.9C29.1996 50.1 29.7996 49.5 30.4996 49.6C30.9996 49.6 31.3996 49.7 31.7996 49.7C38.0996 49.7 43.1996 44.6 43.1996 38.3C43.1996 36.2 42.5996 34.1 41.3996 32.2C40.9996 31.5 41.1996 30.7 41.7996 30.3C42.4996 29.9 43.2996 30.1 43.6996 30.7C45.0996 33 45.8996 35.6 45.8996 38.3C46.1996 46.1 39.7996 52.5 31.8996 52.5Z" fill="#2E276C"/>
<path d="M39.7999 37.4C39.6999 37.4 39.6999 37.4 39.5999 37.4C38.9999 37.3 38.5999 36.7 38.6999 36L39.9999 29.4C40.0999 29.1 40.1999 28.8 40.4999 28.7C40.6999 28.5 41.0999 28.5 41.3999 28.5L48.1999 29.8C48.7999 29.9 49.1999 30.5 49.0999 31.2C48.9999 31.8 48.3999 32.2 47.6999 32.1L41.9999 30.9L40.9999 36.4C40.8999 37 40.3999 37.4 39.7999 37.4Z" fill="#2E276C"/>
</g>
<defs>
<clipPath id="clip0">
<rect width="49" height="52.5" fill="white"/>
</clipPath>
</defs>
</svg>
