<svg width="35" height="23" viewBox="0 0 35 23" fill="none" xmlns="http://www.w3.org/2000/svg">
<path d="M30.3284 0H4.95158C2.16632 0 0 1.78889 0 4.08889V18.6556C0 20.9556 2.16632 23 4.95158 23H30.0189C32.8042 23 34.9705 21.2111 34.9705 18.9111V4.08889C35.28 1.78889 33.1137 0 30.3284 0ZM30.3284 2.04444C30.6379 2.04444 30.6379 2.04444 30.9474 2.04444L20.1158 12.0111C19.4968 12.5222 18.5684 13.0333 17.64 13.0333C16.7116 13.0333 15.7832 12.7778 15.1642 12.0111L4.6421 2.04444C4.95158 2.04444 4.95158 2.04444 5.26105 2.04444H30.3284ZM32.8042 18.6556C32.8042 19.9333 31.5663 20.9556 30.0189 20.9556H4.95158C3.40421 20.9556 2.16632 19.9333 2.16632 18.6556V4.08889C2.16632 3.83333 2.16632 3.57778 2.47579 3.32222L12.9979 13.2889C14.2358 14.3111 15.7832 14.8222 17.3305 14.8222C18.8779 14.8222 20.7347 14.3111 21.6632 13.2889L32.1853 3.32222C32.1853 3.57778 32.4947 3.83333 32.4947 4.08889V18.6556H32.8042Z" fill="#A5B4CB"/>
</svg>
