<svg width="19" height="12" viewBox="0 0 19 12" fill="none" xmlns="http://www.w3.org/2000/svg">
<path d="M16.464 0H2.688C1.176 0 0 0.880792 0 2.01324V9.1854C0 10.3178 1.176 11.3245 2.688 11.3245H16.296C17.808 11.3245 18.984 10.4437 18.984 9.31122V2.01324C19.152 0.880792 17.976 0 16.464 0ZM16.464 1.00662C16.632 1.00662 16.632 1.00662 16.8 1.00662L10.92 5.91389C10.584 6.16554 10.08 6.4172 9.576 6.4172C9.072 6.4172 8.568 6.29137 8.232 5.91389L2.52 1.00662C2.688 1.00662 2.688 1.00662 2.856 1.00662H16.464ZM17.808 9.1854C17.808 9.81453 17.136 10.3178 16.296 10.3178H2.688C1.848 10.3178 1.176 9.81453 1.176 9.1854V2.01324C1.176 1.88741 1.176 1.76158 1.344 1.63576L7.056 6.54302C7.728 7.04633 8.568 7.29799 9.408 7.29799C10.248 7.29799 11.256 7.04633 11.76 6.54302L17.472 1.63576C17.472 1.76158 17.64 1.88741 17.64 2.01324V9.1854H17.808Z" fill="white"/>
</svg>
