<svg width="884" height="23" viewBox="0 0 884 23" fill="none" xmlns="http://www.w3.org/2000/svg">
<rect x="157" width="311" height="23" rx="2" fill="white"/>
<rect x="507" width="149" height="23" rx="2" fill="white"/>
<rect x="751" width="133" height="23" rx="2" fill="white"/>
<path d="M27.21 9.73H28.05L31.29 5.35H33.63L29.805 10.495L33.975 16H31.665L28.245 11.59H27.21V16H25.155V5.35H27.21V9.73ZM36.8598 16.15C36.4798 16.15 36.1248 16.09 35.7948 15.97C35.4648 15.84 35.1798 15.665 34.9398 15.445C34.6998 15.215 34.5098 14.95 34.3698 14.65C34.2398 14.35 34.1748 14.02 34.1748 13.66C34.1748 13.29 34.2548 12.95 34.4148 12.64C34.5848 12.32 34.8148 12.05 35.1048 11.83C35.4048 11.61 35.7598 11.44 36.1698 11.32C36.5798 11.19 37.0298 11.125 37.5198 11.125C37.8698 11.125 38.2098 11.155 38.5398 11.215C38.8798 11.275 39.1798 11.36 39.4398 11.47V11.02C39.4398 10.5 39.2898 10.1 38.9898 9.82C38.6998 9.54 38.2648 9.4 37.6848 9.4C37.2648 9.4 36.8548 9.475 36.4548 9.625C36.0548 9.775 35.6448 9.995 35.2248 10.285L34.6098 9.01C35.6198 8.34 36.7098 8.005 37.8798 8.005C39.0098 8.005 39.8848 8.285 40.5048 8.845C41.1348 9.395 41.4498 10.195 41.4498 11.245V13.69C41.4498 13.9 41.4848 14.05 41.5548 14.14C41.6348 14.23 41.7598 14.28 41.9298 14.29V16C41.5898 16.07 41.2948 16.105 41.0448 16.105C40.6648 16.105 40.3698 16.02 40.1598 15.85C39.9598 15.68 39.8348 15.455 39.7848 15.175L39.7398 14.74C39.3898 15.2 38.9648 15.55 38.4648 15.79C37.9648 16.03 37.4298 16.15 36.8598 16.15ZM37.4298 14.68C37.7698 14.68 38.0898 14.62 38.3898 14.5C38.6998 14.38 38.9398 14.22 39.1098 14.02C39.3298 13.85 39.4398 13.66 39.4398 13.45V12.55C39.1998 12.46 38.9398 12.39 38.6598 12.34C38.3798 12.28 38.1098 12.25 37.8498 12.25C37.3298 12.25 36.9048 12.37 36.5748 12.61C36.2448 12.84 36.0798 13.135 36.0798 13.495C36.0798 13.835 36.2098 14.12 36.4698 14.35C36.7298 14.57 37.0498 14.68 37.4298 14.68ZM46.9327 16H44.9377V9.88H42.4777V8.14H49.3777V9.88H46.9327V16ZM52.5483 16.15C52.1683 16.15 51.8133 16.09 51.4833 15.97C51.1533 15.84 50.8683 15.665 50.6283 15.445C50.3883 15.215 50.1983 14.95 50.0583 14.65C49.9283 14.35 49.8633 14.02 49.8633 13.66C49.8633 13.29 49.9433 12.95 50.1033 12.64C50.2733 12.32 50.5033 12.05 50.7933 11.83C51.0933 11.61 51.4483 11.44 51.8583 11.32C52.2683 11.19 52.7183 11.125 53.2083 11.125C53.5583 11.125 53.8983 11.155 54.2283 11.215C54.5683 11.275 54.8683 11.36 55.1283 11.47V11.02C55.1283 10.5 54.9783 10.1 54.6783 9.82C54.3883 9.54 53.9533 9.4 53.3733 9.4C52.9533 9.4 52.5433 9.475 52.1433 9.625C51.7433 9.775 51.3333 9.995 50.9133 10.285L50.2983 9.01C51.3083 8.34 52.3983 8.005 53.5683 8.005C54.6983 8.005 55.5733 8.285 56.1933 8.845C56.8233 9.395 57.1383 10.195 57.1383 11.245V13.69C57.1383 13.9 57.1733 14.05 57.2433 14.14C57.3233 14.23 57.4483 14.28 57.6183 14.29V16C57.2783 16.07 56.9833 16.105 56.7333 16.105C56.3533 16.105 56.0583 16.02 55.8483 15.85C55.6483 15.68 55.5233 15.455 55.4733 15.175L55.4283 14.74C55.0783 15.2 54.6533 15.55 54.1533 15.79C53.6533 16.03 53.1183 16.15 52.5483 16.15ZM53.1183 14.68C53.4583 14.68 53.7783 14.62 54.0783 14.5C54.3883 14.38 54.6283 14.22 54.7983 14.02C55.0183 13.85 55.1283 13.66 55.1283 13.45V12.55C54.8883 12.46 54.6283 12.39 54.3483 12.34C54.0683 12.28 53.7983 12.25 53.5383 12.25C53.0183 12.25 52.5933 12.37 52.2633 12.61C51.9333 12.84 51.7683 13.135 51.7683 13.495C51.7683 13.835 51.8983 14.12 52.1583 14.35C52.4183 14.57 52.7383 14.68 53.1183 14.68ZM58.2509 14.29C58.5409 14.27 58.7759 14.21 58.9559 14.11C59.1459 14.01 59.3009 13.825 59.4209 13.555C59.5509 13.285 59.6559 12.915 59.7359 12.445C59.8259 11.965 59.9159 11.34 60.0059 10.57L60.2759 8.14H65.7809V16H63.7859V9.82H62.0309L61.8809 11.005C61.7609 11.995 61.6159 12.815 61.4459 13.465C61.2759 14.105 61.0559 14.615 60.7859 14.995C60.5259 15.375 60.2009 15.645 59.8109 15.805C59.4209 15.955 58.9409 16.04 58.3709 16.06L58.2509 14.29ZM71.2745 16.15C70.6345 16.15 70.0595 16.04 69.5495 15.82C69.0395 15.6 68.6045 15.305 68.2445 14.935C67.8945 14.555 67.6245 14.12 67.4345 13.63C67.2445 13.14 67.1495 12.625 67.1495 12.085C67.1495 11.535 67.2445 11.015 67.4345 10.525C67.6245 10.035 67.8945 9.605 68.2445 9.235C68.6045 8.855 69.0395 8.555 69.5495 8.335C70.0595 8.115 70.6345 8.005 71.2745 8.005C71.9145 8.005 72.4845 8.115 72.9845 8.335C73.4945 8.555 73.9245 8.855 74.2745 9.235C74.6345 9.605 74.9095 10.035 75.0995 10.525C75.2895 11.015 75.3845 11.535 75.3845 12.085C75.3845 12.625 75.2895 13.14 75.0995 13.63C74.9095 14.12 74.6395 14.555 74.2895 14.935C73.9395 15.305 73.5095 15.6 72.9995 15.82C72.4895 16.04 71.9145 16.15 71.2745 16.15ZM69.2195 12.085C69.2195 12.435 69.2695 12.755 69.3695 13.045C69.4795 13.325 69.6245 13.57 69.8045 13.78C69.9945 13.99 70.2145 14.155 70.4645 14.275C70.7145 14.385 70.9845 14.44 71.2745 14.44C71.5645 14.44 71.8345 14.385 72.0845 14.275C72.3345 14.155 72.5495 13.99 72.7295 13.78C72.9195 13.57 73.0645 13.32 73.1645 13.03C73.2745 12.74 73.3295 12.42 73.3295 12.07C73.3295 11.73 73.2745 11.415 73.1645 11.125C73.0645 10.835 72.9195 10.585 72.7295 10.375C72.5495 10.165 72.3345 10.005 72.0845 9.895C71.8345 9.775 71.5645 9.715 71.2745 9.715C70.9845 9.715 70.7145 9.775 70.4645 9.895C70.2145 10.015 69.9945 10.18 69.8045 10.39C69.6245 10.6 69.4795 10.85 69.3695 11.14C69.2695 11.43 69.2195 11.745 69.2195 12.085ZM82.0512 9.805H78.7662V16H76.7712V8.14H82.0512V9.805ZM90.5996 16H88.6046V9.88H86.1446V8.14H93.0446V9.88H90.5996V16ZM97.4659 16.15C96.8259 16.15 96.2509 16.04 95.7409 15.82C95.2309 15.6 94.7959 15.305 94.4359 14.935C94.0859 14.555 93.8159 14.12 93.6259 13.63C93.4359 13.14 93.3409 12.625 93.3409 12.085C93.3409 11.535 93.4359 11.015 93.6259 10.525C93.8159 10.035 94.0859 9.605 94.4359 9.235C94.7959 8.855 95.2309 8.555 95.7409 8.335C96.2509 8.115 96.8259 8.005 97.4659 8.005C98.1059 8.005 98.6759 8.115 99.1759 8.335C99.6859 8.555 100.116 8.855 100.466 9.235C100.826 9.605 101.101 10.035 101.291 10.525C101.481 11.015 101.576 11.535 101.576 12.085C101.576 12.625 101.481 13.14 101.291 13.63C101.101 14.12 100.831 14.555 100.481 14.935C100.131 15.305 99.7009 15.6 99.1909 15.82C98.6809 16.04 98.1059 16.15 97.4659 16.15ZM95.4109 12.085C95.4109 12.435 95.4609 12.755 95.5609 13.045C95.6709 13.325 95.8159 13.57 95.9959 13.78C96.1859 13.99 96.4059 14.155 96.6559 14.275C96.9059 14.385 97.1759 14.44 97.4659 14.44C97.7559 14.44 98.0259 14.385 98.2759 14.275C98.5259 14.155 98.7409 13.99 98.9209 13.78C99.1109 13.57 99.2559 13.32 99.3559 13.03C99.4659 12.74 99.5209 12.42 99.5209 12.07C99.5209 11.73 99.4659 11.415 99.3559 11.125C99.2559 10.835 99.1109 10.585 98.9209 10.375C98.7409 10.165 98.5259 10.005 98.2759 9.895C98.0259 9.775 97.7559 9.715 97.4659 9.715C97.1759 9.715 96.9059 9.775 96.6559 9.895C96.4059 10.015 96.1859 10.18 95.9959 10.39C95.8159 10.6 95.6709 10.85 95.5609 11.14C95.4609 11.43 95.4109 11.745 95.4109 12.085ZM107.628 8.14C107.918 8.14 108.183 8.195 108.423 8.305C108.663 8.405 108.868 8.545 109.038 8.725C109.218 8.905 109.353 9.115 109.443 9.355C109.543 9.595 109.593 9.85 109.593 10.12C109.593 10.46 109.503 10.805 109.323 11.155C109.143 11.495 108.848 11.75 108.438 11.92C108.898 12.05 109.258 12.275 109.518 12.595C109.788 12.905 109.923 13.33 109.923 13.87C109.923 14.59 109.673 15.125 109.173 15.475C108.673 15.825 107.983 16 107.103 16H102.978V8.14H107.628ZM106.683 11.425C106.963 11.425 107.188 11.345 107.358 11.185C107.528 11.025 107.613 10.795 107.613 10.495C107.613 10.245 107.538 10.035 107.388 9.865C107.248 9.685 107.033 9.595 106.743 9.595H104.973V11.425H106.683ZM106.953 14.545C107.243 14.545 107.473 14.45 107.643 14.26C107.823 14.07 107.913 13.84 107.913 13.57C107.913 13.29 107.828 13.06 107.658 12.88C107.488 12.69 107.258 12.595 106.968 12.595H104.973V14.545H106.953ZM113.427 16.15C113.047 16.15 112.692 16.09 112.362 15.97C112.032 15.84 111.747 15.665 111.507 15.445C111.267 15.215 111.077 14.95 110.937 14.65C110.807 14.35 110.742 14.02 110.742 13.66C110.742 13.29 110.822 12.95 110.982 12.64C111.152 12.32 111.382 12.05 111.672 11.83C111.972 11.61 112.327 11.44 112.737 11.32C113.147 11.19 113.597 11.125 114.087 11.125C114.437 11.125 114.777 11.155 115.107 11.215C115.447 11.275 115.747 11.36 116.007 11.47V11.02C116.007 10.5 115.857 10.1 115.557 9.82C115.267 9.54 114.832 9.4 114.252 9.4C113.832 9.4 113.422 9.475 113.022 9.625C112.622 9.775 112.212 9.995 111.792 10.285L111.177 9.01C112.187 8.34 113.277 8.005 114.447 8.005C115.577 8.005 116.452 8.285 117.072 8.845C117.702 9.395 118.017 10.195 118.017 11.245V13.69C118.017 13.9 118.052 14.05 118.122 14.14C118.202 14.23 118.327 14.28 118.497 14.29V16C118.157 16.07 117.862 16.105 117.612 16.105C117.232 16.105 116.937 16.02 116.727 15.85C116.527 15.68 116.402 15.455 116.352 15.175L116.307 14.74C115.957 15.2 115.532 15.55 115.032 15.79C114.532 16.03 113.997 16.15 113.427 16.15ZM113.997 14.68C114.337 14.68 114.657 14.62 114.957 14.5C115.267 14.38 115.507 14.22 115.677 14.02C115.897 13.85 116.007 13.66 116.007 13.45V12.55C115.767 12.46 115.507 12.39 115.227 12.34C114.947 12.28 114.677 12.25 114.417 12.25C113.897 12.25 113.472 12.37 113.142 12.61C112.812 12.84 112.647 13.135 112.647 13.495C112.647 13.835 112.777 14.12 113.037 14.35C113.297 14.57 113.617 14.68 113.997 14.68ZM124.665 16.15C124.045 16.15 123.505 16.015 123.045 15.745C122.585 15.465 122.225 15.09 121.965 14.62V19.195H119.955V8.14H121.71V9.49C122 9.03 122.375 8.67 122.835 8.41C123.295 8.14 123.825 8.005 124.425 8.005C124.955 8.005 125.445 8.115 125.895 8.335C126.345 8.545 126.73 8.835 127.05 9.205C127.38 9.565 127.635 9.995 127.815 10.495C128.005 10.985 128.1 11.505 128.1 12.055C128.1 12.625 128.015 13.16 127.845 13.66C127.675 14.16 127.435 14.595 127.125 14.965C126.825 15.335 126.465 15.625 126.045 15.835C125.625 16.045 125.165 16.15 124.665 16.15ZM123.99 14.44C124.29 14.44 124.565 14.375 124.815 14.245C125.075 14.115 125.295 13.94 125.475 13.72C125.655 13.5 125.795 13.245 125.895 12.955C125.995 12.665 126.045 12.365 126.045 12.055C126.045 11.725 125.99 11.42 125.88 11.14C125.77 10.85 125.615 10.6 125.415 10.39C125.225 10.18 124.995 10.015 124.725 9.895C124.465 9.775 124.18 9.715 123.87 9.715C123.68 9.715 123.485 9.75 123.285 9.82C123.085 9.88 122.9 9.97 122.73 10.09C122.56 10.21 122.405 10.35 122.265 10.51C122.135 10.67 122.035 10.845 121.965 11.035V12.88C122.145 13.33 122.42 13.705 122.79 14.005C123.16 14.295 123.56 14.44 123.99 14.44ZM133.076 16.15C132.436 16.15 131.861 16.04 131.351 15.82C130.841 15.6 130.406 15.305 130.046 14.935C129.696 14.555 129.426 14.12 129.236 13.63C129.046 13.14 128.951 12.625 128.951 12.085C128.951 11.535 129.046 11.015 129.236 10.525C129.426 10.035 129.696 9.605 130.046 9.235C130.406 8.855 130.841 8.555 131.351 8.335C131.861 8.115 132.436 8.005 133.076 8.005C133.716 8.005 134.286 8.115 134.786 8.335C135.296 8.555 135.726 8.855 136.076 9.235C136.436 9.605 136.711 10.035 136.901 10.525C137.091 11.015 137.186 11.535 137.186 12.085C137.186 12.625 137.091 13.14 136.901 13.63C136.711 14.12 136.441 14.555 136.091 14.935C135.741 15.305 135.311 15.6 134.801 15.82C134.291 16.04 133.716 16.15 133.076 16.15ZM131.021 12.085C131.021 12.435 131.071 12.755 131.171 13.045C131.281 13.325 131.426 13.57 131.606 13.78C131.796 13.99 132.016 14.155 132.266 14.275C132.516 14.385 132.786 14.44 133.076 14.44C133.366 14.44 133.636 14.385 133.886 14.275C134.136 14.155 134.351 13.99 134.531 13.78C134.721 13.57 134.866 13.32 134.966 13.03C135.076 12.74 135.131 12.42 135.131 12.07C135.131 11.73 135.076 11.415 134.966 11.125C134.866 10.835 134.721 10.585 134.531 10.375C134.351 10.165 134.136 10.005 133.886 9.895C133.636 9.775 133.366 9.715 133.076 9.715C132.786 9.715 132.516 9.775 132.266 9.895C132.016 10.015 131.796 10.18 131.606 10.39C131.426 10.6 131.281 10.85 131.171 11.14C131.071 11.43 131.021 11.745 131.021 12.085ZM143.238 8.14C143.528 8.14 143.793 8.195 144.033 8.305C144.273 8.405 144.478 8.545 144.648 8.725C144.828 8.905 144.963 9.115 145.053 9.355C145.153 9.595 145.203 9.85 145.203 10.12C145.203 10.46 145.113 10.805 144.933 11.155C144.753 11.495 144.458 11.75 144.048 11.92C144.508 12.05 144.868 12.275 145.128 12.595C145.398 12.905 145.533 13.33 145.533 13.87C145.533 14.59 145.283 15.125 144.783 15.475C144.283 15.825 143.593 16 142.713 16H138.588V8.14H143.238ZM142.293 11.425C142.573 11.425 142.798 11.345 142.968 11.185C143.138 11.025 143.223 10.795 143.223 10.495C143.223 10.245 143.148 10.035 142.998 9.865C142.858 9.685 142.643 9.595 142.353 9.595H140.583V11.425H142.293ZM142.563 14.545C142.853 14.545 143.083 14.45 143.253 14.26C143.433 14.07 143.523 13.84 143.523 13.57C143.523 13.29 143.438 13.06 143.268 12.88C143.098 12.69 142.868 12.595 142.578 12.595H140.583V14.545H142.563Z" fill="white"/>
<path d="M165.044 6.48H171.836V15H170.756V7.44H166.124V15H165.044V6.48ZM176.354 15.12C175.882 15.12 175.45 15.032 175.058 14.856C174.674 14.68 174.342 14.444 174.062 14.148C173.79 13.852 173.578 13.508 173.426 13.116C173.274 12.724 173.198 12.312 173.198 11.88C173.198 11.44 173.274 11.024 173.426 10.632C173.586 10.24 173.802 9.896 174.074 9.6C174.354 9.304 174.686 9.068 175.07 8.892C175.462 8.716 175.89 8.628 176.354 8.628C176.818 8.628 177.246 8.716 177.638 8.892C178.03 9.068 178.362 9.304 178.634 9.6C178.914 9.896 179.13 10.24 179.282 10.632C179.442 11.024 179.522 11.44 179.522 11.88C179.522 12.312 179.446 12.724 179.294 13.116C179.142 13.508 178.926 13.852 178.646 14.148C178.366 14.444 178.03 14.68 177.638 14.856C177.254 15.032 176.826 15.12 176.354 15.12ZM174.278 11.892C174.278 12.22 174.33 12.524 174.434 12.804C174.546 13.084 174.694 13.328 174.878 13.536C175.07 13.744 175.29 13.908 175.538 14.028C175.794 14.148 176.066 14.208 176.354 14.208C176.642 14.208 176.91 14.148 177.158 14.028C177.414 13.908 177.638 13.744 177.83 13.536C178.022 13.32 178.17 13.072 178.274 12.792C178.386 12.504 178.442 12.196 178.442 11.868C178.442 11.548 178.386 11.248 178.274 10.968C178.17 10.68 178.022 10.432 177.83 10.224C177.638 10.008 177.414 9.84 177.158 9.72C176.91 9.6 176.642 9.54 176.354 9.54C176.066 9.54 175.794 9.604 175.538 9.732C175.29 9.852 175.07 10.02 174.878 10.236C174.694 10.444 174.546 10.692 174.434 10.98C174.33 11.26 174.278 11.564 174.278 11.892ZM181.857 13.512L185.265 8.736H186.117V15H185.085V10.32L181.737 15H180.825V8.736H181.857V13.512ZM187.436 11.856C187.436 11.416 187.512 11 187.664 10.608C187.816 10.216 188.032 9.876 188.312 9.588C188.592 9.292 188.924 9.06 189.308 8.892C189.7 8.716 190.136 8.628 190.616 8.628C191.24 8.628 191.776 8.768 192.224 9.048C192.68 9.32 193.024 9.688 193.256 10.152L192.224 10.476C192.064 10.18 191.84 9.952 191.552 9.792C191.264 9.624 190.944 9.54 190.592 9.54C190.304 9.54 190.032 9.6 189.776 9.72C189.52 9.832 189.3 9.992 189.116 10.2C188.932 10.408 188.784 10.652 188.672 10.932C188.568 11.212 188.516 11.52 188.516 11.856C188.516 12.184 188.572 12.492 188.684 12.78C188.796 13.068 188.944 13.32 189.128 13.536C189.32 13.744 189.54 13.908 189.788 14.028C190.044 14.148 190.316 14.208 190.604 14.208C190.788 14.208 190.968 14.184 191.144 14.136C191.328 14.08 191.492 14.008 191.636 13.92C191.788 13.832 191.92 13.732 192.032 13.62C192.144 13.5 192.224 13.372 192.272 13.236L193.304 13.548C193.208 13.78 193.072 13.992 192.896 14.184C192.728 14.376 192.528 14.54 192.296 14.676C192.064 14.812 191.804 14.92 191.516 15C191.236 15.08 190.94 15.12 190.628 15.12C190.156 15.12 189.724 15.032 189.332 14.856C188.94 14.68 188.604 14.444 188.324 14.148C188.044 13.852 187.824 13.508 187.664 13.116C187.512 12.716 187.436 12.296 187.436 11.856ZM198.256 8.736H199.432L196.972 11.784L199.6 15H198.436L196.288 12.252H195.556V15H194.524V8.736H195.556V11.46H196.168L198.256 8.736ZM208.612 15H207.58V9.648H204.592V15H203.56V8.736H208.612V15ZM213.08 15.12C212.608 15.12 212.176 15.032 211.784 14.856C211.4 14.68 211.068 14.444 210.788 14.148C210.516 13.852 210.304 13.508 210.152 13.116C210 12.724 209.924 12.312 209.924 11.88C209.924 11.44 210 11.024 210.152 10.632C210.312 10.24 210.528 9.896 210.8 9.6C211.08 9.304 211.412 9.068 211.796 8.892C212.188 8.716 212.616 8.628 213.08 8.628C213.544 8.628 213.972 8.716 214.364 8.892C214.756 9.068 215.088 9.304 215.36 9.6C215.64 9.896 215.856 10.24 216.008 10.632C216.168 11.024 216.248 11.44 216.248 11.88C216.248 12.312 216.172 12.724 216.02 13.116C215.868 13.508 215.652 13.852 215.372 14.148C215.092 14.444 214.756 14.68 214.364 14.856C213.98 15.032 213.552 15.12 213.08 15.12ZM211.004 11.892C211.004 12.22 211.056 12.524 211.16 12.804C211.272 13.084 211.42 13.328 211.604 13.536C211.796 13.744 212.016 13.908 212.264 14.028C212.52 14.148 212.792 14.208 213.08 14.208C213.368 14.208 213.636 14.148 213.884 14.028C214.14 13.908 214.364 13.744 214.556 13.536C214.748 13.32 214.896 13.072 215 12.792C215.112 12.504 215.168 12.196 215.168 11.868C215.168 11.548 215.112 11.248 215 10.968C214.896 10.68 214.748 10.432 214.556 10.224C214.364 10.008 214.14 9.84 213.884 9.72C213.636 9.6 213.368 9.54 213.08 9.54C212.792 9.54 212.52 9.604 212.264 9.732C212.016 9.852 211.796 10.02 211.604 10.236C211.42 10.444 211.272 10.692 211.16 10.98C211.056 11.26 211.004 11.564 211.004 11.892ZM224.319 8.736H225.495L223.035 11.784L225.663 15H224.499L222.351 12.252H221.619V15H220.587V8.736H221.619V11.46H222.231L224.319 8.736ZM228.065 15.12C227.769 15.12 227.493 15.072 227.237 14.976C226.981 14.872 226.757 14.732 226.565 14.556C226.381 14.38 226.233 14.176 226.121 13.944C226.017 13.704 225.965 13.444 225.965 13.164C225.965 12.876 226.029 12.616 226.157 12.384C226.285 12.144 226.465 11.94 226.697 11.772C226.937 11.604 227.217 11.472 227.537 11.376C227.865 11.28 228.221 11.232 228.605 11.232C228.909 11.232 229.217 11.26 229.529 11.316C229.841 11.372 230.117 11.448 230.357 11.544V11.04C230.357 10.528 230.213 10.128 229.925 9.84C229.637 9.544 229.229 9.396 228.701 9.396C228.069 9.396 227.405 9.64 226.709 10.128L226.361 9.444C227.169 8.9 227.981 8.628 228.797 8.628C229.621 8.628 230.261 8.848 230.717 9.288C231.181 9.728 231.413 10.348 231.413 11.148V13.704C231.413 13.952 231.525 14.08 231.749 14.088V15C231.637 15.016 231.545 15.028 231.473 15.036C231.401 15.044 231.325 15.048 231.245 15.048C231.037 15.048 230.869 14.988 230.741 14.868C230.621 14.74 230.549 14.588 230.525 14.412L230.501 13.968C230.221 14.344 229.865 14.632 229.433 14.832C229.009 15.024 228.553 15.12 228.065 15.12ZM228.341 14.328C228.717 14.328 229.065 14.26 229.385 14.124C229.713 13.98 229.961 13.792 230.129 13.56C230.281 13.408 230.357 13.252 230.357 13.092V12.168C229.845 11.968 229.313 11.868 228.761 11.868C228.233 11.868 227.801 11.98 227.465 12.204C227.137 12.428 226.973 12.72 226.973 13.08C226.973 13.256 227.005 13.42 227.069 13.572C227.141 13.724 227.237 13.856 227.357 13.968C227.485 14.08 227.633 14.168 227.801 14.232C227.969 14.296 228.149 14.328 228.341 14.328ZM235.575 15H234.543V9.648H232.443V8.736H237.675V9.648H235.575V15ZM240.382 15.12C240.086 15.12 239.81 15.072 239.554 14.976C239.298 14.872 239.074 14.732 238.882 14.556C238.698 14.38 238.55 14.176 238.438 13.944C238.334 13.704 238.282 13.444 238.282 13.164C238.282 12.876 238.346 12.616 238.474 12.384C238.602 12.144 238.782 11.94 239.014 11.772C239.254 11.604 239.534 11.472 239.854 11.376C240.182 11.28 240.538 11.232 240.922 11.232C241.226 11.232 241.534 11.26 241.846 11.316C242.158 11.372 242.434 11.448 242.674 11.544V11.04C242.674 10.528 242.53 10.128 242.242 9.84C241.954 9.544 241.546 9.396 241.018 9.396C240.386 9.396 239.722 9.64 239.026 10.128L238.678 9.444C239.486 8.9 240.298 8.628 241.114 8.628C241.938 8.628 242.578 8.848 243.034 9.288C243.498 9.728 243.73 10.348 243.73 11.148V13.704C243.73 13.952 243.842 14.08 244.066 14.088V15C243.954 15.016 243.862 15.028 243.79 15.036C243.718 15.044 243.642 15.048 243.562 15.048C243.354 15.048 243.186 14.988 243.058 14.868C242.938 14.74 242.866 14.588 242.842 14.412L242.818 13.968C242.538 14.344 242.182 14.632 241.75 14.832C241.326 15.024 240.87 15.12 240.382 15.12ZM240.658 14.328C241.034 14.328 241.382 14.26 241.702 14.124C242.03 13.98 242.278 13.792 242.446 13.56C242.598 13.408 242.674 13.252 242.674 13.092V12.168C242.162 11.968 241.63 11.868 241.078 11.868C240.55 11.868 240.118 11.98 239.782 12.204C239.454 12.428 239.29 12.72 239.29 13.08C239.29 13.256 239.322 13.42 239.386 13.572C239.458 13.724 239.554 13.856 239.674 13.968C239.802 14.08 239.95 14.168 240.118 14.232C240.286 14.296 240.466 14.328 240.658 14.328ZM244.626 14.136C244.882 14.112 245.094 14.052 245.262 13.956C245.438 13.852 245.582 13.672 245.694 13.416C245.814 13.152 245.914 12.788 245.994 12.324C246.074 11.852 246.154 11.24 246.234 10.488L246.426 8.736H250.326V15H249.294V9.564H247.398L247.218 10.92C247.106 11.736 246.986 12.408 246.858 12.936C246.738 13.456 246.586 13.872 246.402 14.184C246.218 14.488 245.998 14.704 245.742 14.832C245.486 14.96 245.174 15.036 244.806 15.06L244.626 14.136ZM254.787 15.12C254.315 15.12 253.883 15.032 253.491 14.856C253.107 14.68 252.775 14.444 252.495 14.148C252.223 13.852 252.011 13.508 251.859 13.116C251.707 12.724 251.631 12.312 251.631 11.88C251.631 11.44 251.707 11.024 251.859 10.632C252.019 10.24 252.235 9.896 252.507 9.6C252.787 9.304 253.119 9.068 253.503 8.892C253.895 8.716 254.323 8.628 254.787 8.628C255.251 8.628 255.679 8.716 256.071 8.892C256.463 9.068 256.795 9.304 257.067 9.6C257.347 9.896 257.563 10.24 257.715 10.632C257.875 11.024 257.955 11.44 257.955 11.88C257.955 12.312 257.879 12.724 257.727 13.116C257.575 13.508 257.359 13.852 257.079 14.148C256.799 14.444 256.463 14.68 256.071 14.856C255.687 15.032 255.259 15.12 254.787 15.12ZM252.711 11.892C252.711 12.22 252.763 12.524 252.867 12.804C252.979 13.084 253.127 13.328 253.311 13.536C253.503 13.744 253.723 13.908 253.971 14.028C254.227 14.148 254.499 14.208 254.787 14.208C255.075 14.208 255.343 14.148 255.591 14.028C255.847 13.908 256.071 13.744 256.263 13.536C256.455 13.32 256.603 13.072 256.707 12.792C256.819 12.504 256.875 12.196 256.875 11.868C256.875 11.548 256.819 11.248 256.707 10.968C256.603 10.68 256.455 10.432 256.263 10.224C256.071 10.008 255.847 9.84 255.591 9.72C255.343 9.6 255.075 9.54 254.787 9.54C254.499 9.54 254.227 9.604 253.971 9.732C253.723 9.852 253.503 10.02 253.311 10.236C253.127 10.444 252.979 10.692 252.867 10.98C252.763 11.26 252.711 11.564 252.711 11.892ZM263.243 9.528H260.291V15H259.259V8.736H263.243V9.528ZM264.309 16.428C264.445 16.548 264.577 16.632 264.705 16.68C264.841 16.728 264.981 16.752 265.125 16.752C265.333 16.752 265.529 16.624 265.713 16.368C265.897 16.112 266.081 15.656 266.265 15L263.613 8.736H264.705L266.841 14.052L268.785 8.736H269.793L267.057 15.864C266.921 16.216 266.785 16.508 266.649 16.74C266.521 16.972 266.381 17.156 266.229 17.292C266.085 17.436 265.929 17.536 265.761 17.592C265.593 17.648 265.409 17.676 265.209 17.676C265.001 17.676 264.825 17.652 264.681 17.604C264.545 17.556 264.421 17.472 264.309 17.352V16.428Z" fill="#9AB2D4"/>
<path d="M535.434 10.96C535.434 10.3533 535.541 9.756 535.756 9.168C535.98 8.57067 536.302 8.03867 536.722 7.572C537.142 7.10533 537.655 6.72733 538.262 6.438C538.869 6.14867 539.559 6.004 540.334 6.004C541.249 6.004 542.037 6.20467 542.7 6.606C543.372 7.00733 543.871 7.53 544.198 8.174L542.714 9.196C542.583 8.916 542.425 8.68267 542.238 8.496C542.051 8.3 541.851 8.146 541.636 8.034C541.421 7.922 541.197 7.84267 540.964 7.796C540.731 7.74 540.502 7.712 540.278 7.712C539.793 7.712 539.368 7.81 539.004 8.006C538.649 8.202 538.351 8.45867 538.108 8.776C537.875 9.084 537.697 9.43867 537.576 9.84C537.455 10.232 537.394 10.624 537.394 11.016C537.394 11.4547 537.464 11.8793 537.604 12.29C537.744 12.6913 537.94 13.046 538.192 13.354C538.453 13.662 538.761 13.9093 539.116 14.096C539.48 14.2827 539.877 14.376 540.306 14.376C540.53 14.376 540.763 14.348 541.006 14.292C541.249 14.236 541.477 14.1473 541.692 14.026C541.916 13.9047 542.121 13.7507 542.308 13.564C542.495 13.368 542.644 13.1347 542.756 12.864L544.338 13.774C544.179 14.1473 543.951 14.4787 543.652 14.768C543.363 15.048 543.031 15.286 542.658 15.482C542.294 15.678 541.902 15.8273 541.482 15.93C541.062 16.0327 540.651 16.084 540.25 16.084C539.541 16.084 538.892 15.9347 538.304 15.636C537.716 15.3373 537.207 14.95 536.778 14.474C536.358 13.9887 536.027 13.4427 535.784 12.836C535.551 12.22 535.434 11.5947 535.434 10.96ZM549.974 8.664H551.99L549.134 12.22L552.214 16H550.086L547.818 13.172H547.328V16H545.48V8.664H547.328V11.576H547.748L549.974 8.664ZM554.932 16.14C554.578 16.14 554.246 16.084 553.938 15.972C553.63 15.8507 553.364 15.6873 553.14 15.482C552.916 15.2673 552.739 15.02 552.608 14.74C552.487 14.46 552.426 14.152 552.426 13.816C552.426 13.4707 552.501 13.1533 552.65 12.864C552.809 12.5653 553.024 12.3133 553.294 12.108C553.574 11.9027 553.906 11.744 554.288 11.632C554.671 11.5107 555.091 11.45 555.548 11.45C555.875 11.45 556.192 11.478 556.5 11.534C556.818 11.59 557.098 11.6693 557.34 11.772V11.352C557.34 10.8667 557.2 10.4933 556.92 10.232C556.65 9.97067 556.244 9.84 555.702 9.84C555.31 9.84 554.928 9.91 554.554 10.05C554.181 10.19 553.798 10.3953 553.406 10.666L552.832 9.476C553.775 8.85067 554.792 8.538 555.884 8.538C556.939 8.538 557.756 8.79933 558.334 9.322C558.922 9.83533 559.216 10.582 559.216 11.562V13.844C559.216 14.04 559.249 14.18 559.314 14.264C559.389 14.348 559.506 14.3947 559.664 14.404V16C559.347 16.0653 559.072 16.098 558.838 16.098C558.484 16.098 558.208 16.0187 558.012 15.86C557.826 15.7013 557.709 15.4913 557.662 15.23L557.62 14.824C557.294 15.2533 556.897 15.58 556.43 15.804C555.964 16.028 555.464 16.14 554.932 16.14ZM555.464 14.768C555.782 14.768 556.08 14.712 556.36 14.6C556.65 14.488 556.874 14.3387 557.032 14.152C557.238 13.9933 557.34 13.816 557.34 13.62V12.78C557.116 12.696 556.874 12.6307 556.612 12.584C556.351 12.528 556.099 12.5 555.856 12.5C555.371 12.5 554.974 12.612 554.666 12.836C554.358 13.0507 554.204 13.326 554.204 13.662C554.204 13.9793 554.326 14.2453 554.568 14.46C554.811 14.6653 555.11 14.768 555.464 14.768ZM566.443 16H564.609V13.382C564.394 13.4567 564.17 13.5127 563.937 13.55C563.713 13.5873 563.428 13.606 563.083 13.606C562.663 13.606 562.299 13.5407 561.991 13.41C561.683 13.27 561.426 13.088 561.221 12.864C561.015 12.6307 560.861 12.36 560.759 12.052C560.656 11.744 560.605 11.4127 560.605 11.058V8.664H562.411V10.778C562.411 11.2633 562.509 11.6087 562.705 11.814C562.901 12.0193 563.176 12.122 563.531 12.122C563.792 12.122 564.007 12.0987 564.175 12.052C564.352 11.996 564.497 11.926 564.609 11.842V8.664H566.443V16ZM570.176 16.14C569.822 16.14 569.49 16.084 569.182 15.972C568.874 15.8507 568.608 15.6873 568.384 15.482C568.16 15.2673 567.983 15.02 567.852 14.74C567.731 14.46 567.67 14.152 567.67 13.816C567.67 13.4707 567.745 13.1533 567.894 12.864C568.053 12.5653 568.268 12.3133 568.538 12.108C568.818 11.9027 569.15 11.744 569.532 11.632C569.915 11.5107 570.335 11.45 570.792 11.45C571.119 11.45 571.436 11.478 571.744 11.534C572.062 11.59 572.342 11.6693 572.584 11.772V11.352C572.584 10.8667 572.444 10.4933 572.164 10.232C571.894 9.97067 571.488 9.84 570.946 9.84C570.554 9.84 570.172 9.91 569.798 10.05C569.425 10.19 569.042 10.3953 568.65 10.666L568.076 9.476C569.019 8.85067 570.036 8.538 571.128 8.538C572.183 8.538 573 8.79933 573.578 9.322C574.166 9.83533 574.46 10.582 574.46 11.562V13.844C574.46 14.04 574.493 14.18 574.558 14.264C574.633 14.348 574.75 14.3947 574.908 14.404V16C574.591 16.0653 574.316 16.098 574.082 16.098C573.728 16.098 573.452 16.0187 573.256 15.86C573.07 15.7013 572.953 15.4913 572.906 15.23L572.864 14.824C572.538 15.2533 572.141 15.58 571.674 15.804C571.208 16.028 570.708 16.14 570.176 16.14ZM570.708 14.768C571.026 14.768 571.324 14.712 571.604 14.6C571.894 14.488 572.118 14.3387 572.276 14.152C572.482 13.9933 572.584 13.816 572.584 13.62V12.78C572.36 12.696 572.118 12.6307 571.856 12.584C571.595 12.528 571.343 12.5 571.1 12.5C570.615 12.5 570.218 12.612 569.91 12.836C569.602 13.0507 569.448 13.326 569.448 13.662C569.448 13.9793 569.57 14.2453 569.812 14.46C570.055 14.6653 570.354 14.768 570.708 14.768ZM579.578 16H577.716V10.288H575.42V8.664H581.86V10.288H579.578V16ZM582.982 8.664H584.844V10.988H586.272C586.664 10.988 587.028 11.044 587.364 11.156C587.709 11.2587 588.008 11.4173 588.26 11.632C588.512 11.8373 588.708 12.0987 588.848 12.416C588.997 12.724 589.072 13.0787 589.072 13.48C589.072 13.8907 589.002 14.2547 588.862 14.572C588.722 14.88 588.53 15.1413 588.288 15.356C588.045 15.5707 587.756 15.734 587.42 15.846C587.093 15.9487 586.734 16 586.342 16H582.982V8.664ZM586.132 14.53C586.458 14.53 586.715 14.446 586.902 14.278C587.088 14.1007 587.182 13.844 587.182 13.508C587.182 13.172 587.084 12.9153 586.888 12.738C586.692 12.5513 586.444 12.458 586.146 12.458H584.844V14.53H586.132ZM598.085 8.664H600.101L597.245 12.22L600.325 16H598.197L595.929 13.172H595.439V16H593.591V8.664H595.439V11.576H595.859L598.085 8.664ZM603.044 16.14C602.689 16.14 602.358 16.084 602.05 15.972C601.742 15.8507 601.476 15.6873 601.252 15.482C601.028 15.2673 600.85 15.02 600.72 14.74C600.598 14.46 600.538 14.152 600.538 13.816C600.538 13.4707 600.612 13.1533 600.762 12.864C600.92 12.5653 601.135 12.3133 601.406 12.108C601.686 11.9027 602.017 11.744 602.4 11.632C602.782 11.5107 603.202 11.45 603.66 11.45C603.986 11.45 604.304 11.478 604.612 11.534C604.929 11.59 605.209 11.6693 605.452 11.772V11.352C605.452 10.8667 605.312 10.4933 605.032 10.232C604.761 9.97067 604.355 9.84 603.814 9.84C603.422 9.84 603.039 9.91 602.666 10.05C602.292 10.19 601.91 10.3953 601.518 10.666L600.944 9.476C601.886 8.85067 602.904 8.538 603.996 8.538C605.05 8.538 605.867 8.79933 606.446 9.322C607.034 9.83533 607.328 10.582 607.328 11.562V13.844C607.328 14.04 607.36 14.18 607.426 14.264C607.5 14.348 607.617 14.3947 607.776 14.404V16C607.458 16.0653 607.183 16.098 606.95 16.098C606.595 16.098 606.32 16.0187 606.124 15.86C605.937 15.7013 605.82 15.4913 605.774 15.23L605.732 14.824C605.405 15.2533 605.008 15.58 604.542 15.804C604.075 16.028 603.576 16.14 603.044 16.14ZM603.576 14.768C603.893 14.768 604.192 14.712 604.472 14.6C604.761 14.488 604.985 14.3387 605.144 14.152C605.349 13.9933 605.452 13.816 605.452 13.62V12.78C605.228 12.696 604.985 12.6307 604.724 12.584C604.462 12.528 604.21 12.5 603.968 12.5C603.482 12.5 603.086 12.612 602.778 12.836C602.47 13.0507 602.316 13.326 602.316 13.662C602.316 13.9793 602.437 14.2453 602.68 14.46C602.922 14.6653 603.221 14.768 603.576 14.768ZM612.445 16H610.583V10.288H608.287V8.664H614.727V10.288H612.445V16ZM617.686 16.14C617.331 16.14 617 16.084 616.692 15.972C616.384 15.8507 616.118 15.6873 615.894 15.482C615.67 15.2673 615.493 15.02 615.362 14.74C615.241 14.46 615.18 14.152 615.18 13.816C615.18 13.4707 615.255 13.1533 615.404 12.864C615.563 12.5653 615.777 12.3133 616.048 12.108C616.328 11.9027 616.659 11.744 617.042 11.632C617.425 11.5107 617.845 11.45 618.302 11.45C618.629 11.45 618.946 11.478 619.254 11.534C619.571 11.59 619.851 11.6693 620.094 11.772V11.352C620.094 10.8667 619.954 10.4933 619.674 10.232C619.403 9.97067 618.997 9.84 618.456 9.84C618.064 9.84 617.681 9.91 617.308 10.05C616.935 10.19 616.552 10.3953 616.16 10.666L615.586 9.476C616.529 8.85067 617.546 8.538 618.638 8.538C619.693 8.538 620.509 8.79933 621.088 9.322C621.676 9.83533 621.97 10.582 621.97 11.562V13.844C621.97 14.04 622.003 14.18 622.068 14.264C622.143 14.348 622.259 14.3947 622.418 14.404V16C622.101 16.0653 621.825 16.098 621.592 16.098C621.237 16.098 620.962 16.0187 620.766 15.86C620.579 15.7013 620.463 15.4913 620.416 15.23L620.374 14.824C620.047 15.2533 619.651 15.58 619.184 15.804C618.717 16.028 618.218 16.14 617.686 16.14ZM618.218 14.768C618.535 14.768 618.834 14.712 619.114 14.6C619.403 14.488 619.627 14.3387 619.786 14.152C619.991 13.9933 620.094 13.816 620.094 13.62V12.78C619.87 12.696 619.627 12.6307 619.366 12.584C619.105 12.528 618.853 12.5 618.61 12.5C618.125 12.5 617.728 12.612 617.42 12.836C617.112 13.0507 616.958 13.326 616.958 13.662C616.958 13.9793 617.079 14.2453 617.322 14.46C617.565 14.6653 617.863 14.768 618.218 14.768ZM623.008 14.404C623.279 14.3853 623.498 14.3293 623.666 14.236C623.844 14.1427 623.988 13.97 624.1 13.718C624.222 13.466 624.32 13.1207 624.394 12.682C624.478 12.234 624.562 11.6507 624.646 10.932L624.898 8.664H630.036V16H628.174V10.232H626.536L626.396 11.338C626.284 12.262 626.149 13.0273 625.99 13.634C625.832 14.2313 625.626 14.7073 625.374 15.062C625.132 15.4167 624.828 15.6687 624.464 15.818C624.1 15.958 623.652 16.0373 623.12 16.056L623.008 14.404ZM635.164 16.14C634.567 16.14 634.03 16.0373 633.554 15.832C633.078 15.6267 632.672 15.3513 632.336 15.006C632.009 14.6513 631.757 14.2453 631.58 13.788C631.403 13.3307 631.314 12.85 631.314 12.346C631.314 11.8327 631.403 11.3473 631.58 10.89C631.757 10.4327 632.009 10.0313 632.336 9.686C632.672 9.33133 633.078 9.05133 633.554 8.846C634.03 8.64067 634.567 8.538 635.164 8.538C635.761 8.538 636.293 8.64067 636.76 8.846C637.236 9.05133 637.637 9.33133 637.964 9.686C638.3 10.0313 638.557 10.4327 638.734 10.89C638.911 11.3473 639 11.8327 639 12.346C639 12.85 638.911 13.3307 638.734 13.788C638.557 14.2453 638.305 14.6513 637.978 15.006C637.651 15.3513 637.25 15.6267 636.774 15.832C636.298 16.0373 635.761 16.14 635.164 16.14ZM633.246 12.346C633.246 12.6727 633.293 12.9713 633.386 13.242C633.489 13.5033 633.624 13.732 633.792 13.928C633.969 14.124 634.175 14.278 634.408 14.39C634.641 14.4927 634.893 14.544 635.164 14.544C635.435 14.544 635.687 14.4927 635.92 14.39C636.153 14.278 636.354 14.124 636.522 13.928C636.699 13.732 636.835 13.4987 636.928 13.228C637.031 12.9573 637.082 12.6587 637.082 12.332C637.082 12.0147 637.031 11.7207 636.928 11.45C636.835 11.1793 636.699 10.946 636.522 10.75C636.354 10.554 636.153 10.4047 635.92 10.302C635.687 10.19 635.435 10.134 635.164 10.134C634.893 10.134 634.641 10.19 634.408 10.302C634.175 10.414 633.969 10.568 633.792 10.764C633.624 10.96 633.489 11.1933 633.386 11.464C633.293 11.7347 633.246 12.0287 633.246 12.346ZM645.222 10.218H642.156V16H640.294V8.664H645.222V10.218Z" fill="#2E276C"/>
<path d="M763.462 7.334C763.863 6.886 764.325 6.55 764.848 6.326C765.371 6.09267 765.996 5.976 766.724 5.976C767.676 5.976 768.427 6.186 768.978 6.606C769.538 7.026 769.818 7.642 769.818 8.454C769.818 8.958 769.692 9.41533 769.44 9.826C769.197 10.2273 768.81 10.512 768.278 10.68C768.894 10.8013 769.37 11.0767 769.706 11.506C770.042 11.926 770.21 12.4487 770.21 13.074C770.21 13.5407 770.117 13.9607 769.93 14.334C769.753 14.698 769.505 15.0107 769.188 15.272C768.871 15.524 768.488 15.72 768.04 15.86C767.601 16 767.125 16.07 766.612 16.07C765.893 16.07 765.259 15.9533 764.708 15.72C764.157 15.4773 763.667 15.118 763.238 14.642L764.358 13.298C764.638 13.6247 764.951 13.8813 765.296 14.068C765.651 14.2547 766.075 14.348 766.57 14.348C767.065 14.348 767.471 14.2173 767.788 13.956C768.105 13.6947 768.264 13.3307 768.264 12.864C768.264 12.4347 768.096 12.08 767.76 11.8C767.433 11.52 766.934 11.38 766.262 11.38H765.226V9.952H766.15C766.747 9.952 767.205 9.84467 767.522 9.63C767.839 9.406 767.998 9.09333 767.998 8.692C767.998 8.33733 767.877 8.06667 767.634 7.88C767.401 7.69333 767.065 7.6 766.626 7.6C766.187 7.6 765.795 7.684 765.45 7.852C765.114 8.01067 764.815 8.23933 764.554 8.538L763.462 7.334ZM773.54 16.14C773.185 16.14 772.854 16.084 772.546 15.972C772.238 15.8507 771.972 15.6873 771.748 15.482C771.524 15.2673 771.346 15.02 771.216 14.74C771.094 14.46 771.034 14.152 771.034 13.816C771.034 13.4707 771.108 13.1533 771.258 12.864C771.416 12.5653 771.631 12.3133 771.902 12.108C772.182 11.9027 772.513 11.744 772.896 11.632C773.278 11.5107 773.698 11.45 774.156 11.45C774.482 11.45 774.8 11.478 775.108 11.534C775.425 11.59 775.705 11.6693 775.948 11.772V11.352C775.948 10.8667 775.808 10.4933 775.528 10.232C775.257 9.97067 774.851 9.84 774.31 9.84C773.918 9.84 773.535 9.91 773.162 10.05C772.788 10.19 772.406 10.3953 772.014 10.666L771.44 9.476C772.382 8.85067 773.4 8.538 774.492 8.538C775.546 8.538 776.363 8.79933 776.942 9.322C777.53 9.83533 777.824 10.582 777.824 11.562V13.844C777.824 14.04 777.856 14.18 777.922 14.264C777.996 14.348 778.113 14.3947 778.272 14.404V16C777.954 16.0653 777.679 16.098 777.446 16.098C777.091 16.098 776.816 16.0187 776.62 15.86C776.433 15.7013 776.316 15.4913 776.27 15.23L776.228 14.824C775.901 15.2533 775.504 15.58 775.038 15.804C774.571 16.028 774.072 16.14 773.54 16.14ZM774.072 14.768C774.389 14.768 774.688 14.712 774.968 14.6C775.257 14.488 775.481 14.3387 775.64 14.152C775.845 13.9933 775.948 13.816 775.948 13.62V12.78C775.724 12.696 775.481 12.6307 775.22 12.584C774.958 12.528 774.706 12.5 774.464 12.5C773.978 12.5 773.582 12.612 773.274 12.836C772.966 13.0507 772.812 13.326 772.812 13.662C772.812 13.9793 772.933 14.2453 773.176 14.46C773.418 14.6653 773.717 14.768 774.072 14.768ZM784.126 8.664H786.142L783.286 12.22L786.366 16H784.238L781.97 13.172H781.48V16H779.632V8.664H781.48V11.576H781.9L784.126 8.664ZM789.085 16.14C788.73 16.14 788.399 16.084 788.091 15.972C787.783 15.8507 787.517 15.6873 787.293 15.482C787.069 15.2673 786.891 15.02 786.761 14.74C786.639 14.46 786.579 14.152 786.579 13.816C786.579 13.4707 786.653 13.1533 786.803 12.864C786.961 12.5653 787.176 12.3133 787.447 12.108C787.727 11.9027 788.058 11.744 788.441 11.632C788.823 11.5107 789.243 11.45 789.701 11.45C790.027 11.45 790.345 11.478 790.653 11.534C790.97 11.59 791.25 11.6693 791.493 11.772V11.352C791.493 10.8667 791.353 10.4933 791.073 10.232C790.802 9.97067 790.396 9.84 789.855 9.84C789.463 9.84 789.08 9.91 788.707 10.05C788.333 10.19 787.951 10.3953 787.559 10.666L786.985 9.476C787.927 8.85067 788.945 8.538 790.037 8.538C791.091 8.538 791.908 8.79933 792.487 9.322C793.075 9.83533 793.369 10.582 793.369 11.562V13.844C793.369 14.04 793.401 14.18 793.467 14.264C793.541 14.348 793.658 14.3947 793.817 14.404V16C793.499 16.0653 793.224 16.098 792.991 16.098C792.636 16.098 792.361 16.0187 792.165 15.86C791.978 15.7013 791.861 15.4913 791.815 15.23L791.773 14.824C791.446 15.2533 791.049 15.58 790.583 15.804C790.116 16.028 789.617 16.14 789.085 16.14ZM789.617 14.768C789.934 14.768 790.233 14.712 790.513 14.6C790.802 14.488 791.026 14.3387 791.185 14.152C791.39 13.9933 791.493 13.816 791.493 13.62V12.78C791.269 12.696 791.026 12.6307 790.765 12.584C790.503 12.528 790.251 12.5 790.009 12.5C789.523 12.5 789.127 12.612 788.819 12.836C788.511 13.0507 788.357 13.326 788.357 13.662C788.357 13.9793 788.478 14.2453 788.721 14.46C788.963 14.6653 789.262 14.768 789.617 14.768ZM794.771 9.462C795.135 9.14467 795.532 8.91133 795.961 8.762C796.39 8.61267 796.829 8.538 797.277 8.538C797.604 8.538 797.912 8.58 798.201 8.664C798.49 8.73867 798.742 8.85533 798.957 9.014C799.181 9.17267 799.354 9.37333 799.475 9.616C799.606 9.84933 799.671 10.12 799.671 10.428C799.671 10.82 799.564 11.1653 799.349 11.464C799.144 11.7533 798.85 11.9353 798.467 12.01C798.999 12.1127 799.4 12.332 799.671 12.668C799.942 12.9947 800.077 13.4053 800.077 13.9C800.077 14.236 800.002 14.544 799.853 14.824C799.713 15.0947 799.517 15.328 799.265 15.524C799.013 15.72 798.71 15.874 798.355 15.986C798.01 16.0887 797.632 16.14 797.221 16.14C796.652 16.14 796.134 16.0467 795.667 15.86C795.2 15.6733 794.822 15.412 794.533 15.076L795.429 13.872C795.616 14.1053 795.844 14.2827 796.115 14.404C796.395 14.516 796.698 14.572 797.025 14.572C797.417 14.572 797.72 14.4927 797.935 14.334C798.159 14.1753 798.271 13.9467 798.271 13.648C798.271 13.312 798.145 13.0553 797.893 12.878C797.65 12.6913 797.235 12.598 796.647 12.598H796.073V11.52H796.633C797.081 11.52 797.422 11.436 797.655 11.268C797.898 11.0907 798.019 10.8667 798.019 10.596C798.019 10.3627 797.93 10.1853 797.753 10.064C797.585 9.94267 797.361 9.882 797.081 9.882C796.838 9.882 796.582 9.938 796.311 10.05C796.04 10.1527 795.793 10.3067 795.569 10.512L794.771 9.462ZM803.317 16.14C802.962 16.14 802.631 16.084 802.323 15.972C802.015 15.8507 801.749 15.6873 801.525 15.482C801.301 15.2673 801.124 15.02 800.993 14.74C800.872 14.46 800.811 14.152 800.811 13.816C800.811 13.4707 800.886 13.1533 801.035 12.864C801.194 12.5653 801.408 12.3133 801.679 12.108C801.959 11.9027 802.29 11.744 802.673 11.632C803.056 11.5107 803.476 11.45 803.933 11.45C804.26 11.45 804.577 11.478 804.885 11.534C805.202 11.59 805.482 11.6693 805.725 11.772V11.352C805.725 10.8667 805.585 10.4933 805.305 10.232C805.034 9.97067 804.628 9.84 804.087 9.84C803.695 9.84 803.312 9.91 802.939 10.05C802.566 10.19 802.183 10.3953 801.791 10.666L801.217 9.476C802.16 8.85067 803.177 8.538 804.269 8.538C805.324 8.538 806.14 8.79933 806.719 9.322C807.307 9.83533 807.601 10.582 807.601 11.562V13.844C807.601 14.04 807.634 14.18 807.699 14.264C807.774 14.348 807.89 14.3947 808.049 14.404V16C807.732 16.0653 807.456 16.098 807.223 16.098C806.868 16.098 806.593 16.0187 806.397 15.86C806.21 15.7013 806.094 15.4913 806.047 15.23L806.005 14.824C805.678 15.2533 805.282 15.58 804.815 15.804C804.348 16.028 803.849 16.14 803.317 16.14ZM803.849 14.768C804.166 14.768 804.465 14.712 804.745 14.6C805.034 14.488 805.258 14.3387 805.417 14.152C805.622 13.9933 805.725 13.816 805.725 13.62V12.78C805.501 12.696 805.258 12.6307 804.997 12.584C804.736 12.528 804.484 12.5 804.241 12.5C803.756 12.5 803.359 12.612 803.051 12.836C802.743 13.0507 802.589 13.326 802.589 13.662C802.589 13.9793 802.71 14.2453 802.953 14.46C803.196 14.6653 803.494 14.768 803.849 14.768ZM812.718 16H810.856V10.288H808.56V8.664H815V10.288H812.718V16ZM816.122 8.664H817.984V10.988H819.412C819.804 10.988 820.168 11.044 820.504 11.156C820.85 11.2587 821.148 11.4173 821.4 11.632C821.652 11.8373 821.848 12.0987 821.988 12.416C822.138 12.724 822.212 13.0787 822.212 13.48C822.212 13.8907 822.142 14.2547 822.002 14.572C821.862 14.88 821.671 15.1413 821.428 15.356C821.186 15.5707 820.896 15.734 820.56 15.846C820.234 15.9487 819.874 16 819.482 16H816.122V8.664ZM819.272 14.53C819.599 14.53 819.856 14.446 820.042 14.278C820.229 14.1007 820.322 13.844 820.322 13.508C820.322 13.172 820.224 12.9153 820.028 12.738C819.832 12.5513 819.585 12.458 819.286 12.458H817.984V14.53H819.272ZM826.326 9.462C826.69 9.14467 827.086 8.91133 827.516 8.762C827.945 8.61267 828.384 8.538 828.832 8.538C829.158 8.538 829.466 8.58 829.756 8.664C830.045 8.73867 830.297 8.85533 830.512 9.014C830.736 9.17267 830.908 9.37333 831.03 9.616C831.16 9.84933 831.226 10.12 831.226 10.428C831.226 10.82 831.118 11.1653 830.904 11.464C830.698 11.7533 830.404 11.9353 830.022 12.01C830.554 12.1127 830.955 12.332 831.226 12.668C831.496 12.9947 831.632 13.4053 831.632 13.9C831.632 14.236 831.557 14.544 831.408 14.824C831.268 15.0947 831.072 15.328 830.82 15.524C830.568 15.72 830.264 15.874 829.91 15.986C829.564 16.0887 829.186 16.14 828.776 16.14C828.206 16.14 827.688 16.0467 827.222 15.86C826.755 15.6733 826.377 15.412 826.088 15.076L826.984 13.872C827.17 14.1053 827.399 14.2827 827.67 14.404C827.95 14.516 828.253 14.572 828.58 14.572C828.972 14.572 829.275 14.4927 829.49 14.334C829.714 14.1753 829.826 13.9467 829.826 13.648C829.826 13.312 829.7 13.0553 829.448 12.878C829.205 12.6913 828.79 12.598 828.202 12.598H827.628V11.52H828.188C828.636 11.52 828.976 11.436 829.21 11.268C829.452 11.0907 829.574 10.8667 829.574 10.596C829.574 10.3627 829.485 10.1853 829.308 10.064C829.14 9.94267 828.916 9.882 828.636 9.882C828.393 9.882 828.136 9.938 827.866 10.05C827.595 10.1527 827.348 10.3067 827.124 10.512L826.326 9.462ZM837.252 8.664C837.522 8.664 837.77 8.71533 837.994 8.818C838.218 8.91133 838.409 9.042 838.568 9.21C838.736 9.378 838.862 9.574 838.946 9.798C839.039 10.022 839.086 10.26 839.086 10.512C839.086 10.8293 839.002 11.1513 838.834 11.478C838.666 11.7953 838.39 12.0333 838.008 12.192C838.437 12.3133 838.773 12.5233 839.016 12.822C839.268 13.1113 839.394 13.508 839.394 14.012C839.394 14.684 839.16 15.1833 838.694 15.51C838.227 15.8367 837.583 16 836.762 16H832.912V8.664H837.252ZM836.37 11.73C836.631 11.73 836.841 11.6553 837 11.506C837.158 11.3567 837.238 11.142 837.238 10.862C837.238 10.6287 837.168 10.4327 837.028 10.274C836.897 10.106 836.696 10.022 836.426 10.022H834.774V11.73H836.37ZM836.622 14.642C836.892 14.642 837.107 14.5533 837.266 14.376C837.434 14.1987 837.518 13.984 837.518 13.732C837.518 13.4707 837.438 13.256 837.28 13.088C837.121 12.9107 836.906 12.822 836.636 12.822H834.774V14.642H836.622ZM844.051 16.14C843.453 16.14 842.917 16.0373 842.441 15.832C841.965 15.6267 841.559 15.3513 841.223 15.006C840.896 14.6513 840.644 14.2453 840.467 13.788C840.289 13.3307 840.201 12.85 840.201 12.346C840.201 11.8327 840.289 11.3473 840.467 10.89C840.644 10.4327 840.896 10.0313 841.223 9.686C841.559 9.33133 841.965 9.05133 842.441 8.846C842.917 8.64067 843.453 8.538 844.051 8.538C844.648 8.538 845.18 8.64067 845.647 8.846C846.123 9.05133 846.524 9.33133 846.851 9.686C847.187 10.0313 847.443 10.4327 847.621 10.89C847.798 11.3473 847.887 11.8327 847.887 12.346C847.887 12.85 847.798 13.3307 847.621 13.788C847.443 14.2453 847.191 14.6513 846.865 15.006C846.538 15.3513 846.137 15.6267 845.661 15.832C845.185 16.0373 844.648 16.14 844.051 16.14ZM842.133 12.346C842.133 12.6727 842.179 12.9713 842.273 13.242C842.375 13.5033 842.511 13.732 842.679 13.928C842.856 14.124 843.061 14.278 843.295 14.39C843.528 14.4927 843.78 14.544 844.051 14.544C844.321 14.544 844.573 14.4927 844.807 14.39C845.04 14.278 845.241 14.124 845.409 13.928C845.586 13.732 845.721 13.4987 845.815 13.228C845.917 12.9573 845.969 12.6587 845.969 12.332C845.969 12.0147 845.917 11.7207 845.815 11.45C845.721 11.1793 845.586 10.946 845.409 10.75C845.241 10.554 845.04 10.4047 844.807 10.302C844.573 10.19 844.321 10.134 844.051 10.134C843.78 10.134 843.528 10.19 843.295 10.302C843.061 10.414 842.856 10.568 842.679 10.764C842.511 10.96 842.375 11.1933 842.273 11.464C842.179 11.7347 842.133 12.0287 842.133 12.346ZM851.043 11.436H853.955V8.664H855.817V16H853.955V13.032H851.043V16H849.181V8.664H851.043V11.436ZM860.922 16.14C860.324 16.14 859.788 16.0373 859.312 15.832C858.836 15.6267 858.43 15.3513 858.094 15.006C857.767 14.6513 857.515 14.2453 857.338 13.788C857.16 13.3307 857.072 12.85 857.072 12.346C857.072 11.8327 857.16 11.3473 857.338 10.89C857.515 10.4327 857.767 10.0313 858.094 9.686C858.43 9.33133 858.836 9.05133 859.312 8.846C859.788 8.64067 860.324 8.538 860.922 8.538C861.519 8.538 862.051 8.64067 862.518 8.846C862.994 9.05133 863.395 9.33133 863.722 9.686C864.058 10.0313 864.314 10.4327 864.492 10.89C864.669 11.3473 864.758 11.8327 864.758 12.346C864.758 12.85 864.669 13.3307 864.492 13.788C864.314 14.2453 864.062 14.6513 863.736 15.006C863.409 15.3513 863.008 15.6267 862.532 15.832C862.056 16.0373 861.519 16.14 860.922 16.14ZM859.004 12.346C859.004 12.6727 859.05 12.9713 859.144 13.242C859.246 13.5033 859.382 13.732 859.55 13.928C859.727 14.124 859.932 14.278 860.166 14.39C860.399 14.4927 860.651 14.544 860.922 14.544C861.192 14.544 861.444 14.4927 861.678 14.39C861.911 14.278 862.112 14.124 862.28 13.928C862.457 13.732 862.592 13.4987 862.686 13.228C862.788 12.9573 862.84 12.6587 862.84 12.332C862.84 12.0147 862.788 11.7207 862.686 11.45C862.592 11.1793 862.457 10.946 862.28 10.75C862.112 10.554 861.911 10.4047 861.678 10.302C861.444 10.19 861.192 10.134 860.922 10.134C860.651 10.134 860.399 10.19 860.166 10.302C859.932 10.414 859.727 10.568 859.55 10.764C859.382 10.96 859.246 11.1933 859.144 11.464C859.05 11.7347 859.004 12.0287 859.004 12.346ZM870.546 8.664H872.562L869.706 12.22L872.786 16H870.658L868.39 13.172H867.9V16H866.052V8.664H867.9V11.576H868.32L870.546 8.664Z" fill="#2E276C"/>
<line y1="7.25" x2="16" y2="7.25" stroke="white" stroke-width="1.5"/>
<line y1="11.25" x2="16" y2="11.25" stroke="white" stroke-width="1.5"/>
<line y1="15.25" x2="16" y2="15.25" stroke="white" stroke-width="1.5"/>
</svg>
