<svg width="67" height="55" viewBox="0 0 67 55" fill="none" xmlns="http://www.w3.org/2000/svg">
<g clip-path="url(#clip0)">
<path d="M15.3004 24.7H4.80039C4.00039 24.7 3.40039 24.1 3.40039 23.3C3.40039 22.5 4.00039 21.9 4.80039 21.9H15.2004C16.0004 21.9 16.6004 22.5 16.6004 23.3C16.7004 24.1 16.0004 24.7 15.3004 24.7Z" fill="#2E276C"/>
<path d="M15.3004 38.6H4.80039C4.00039 38.6 3.40039 38 3.40039 37.2C3.40039 36.4 4.00039 35.8 4.80039 35.8H15.2004C16.0004 35.8 16.6004 36.4 16.6004 37.2C16.7004 38 16.0004 38.6 15.3004 38.6Z" fill="#2E276C"/>
<path d="M12.9 31.8H1.4C0.6 31.8 0 31.2 0 30.4C0 29.6 0.6 29 1.4 29H12.9C13.7 29 14.3 29.6 14.3 30.4C14.3 31.2 13.6 31.8 12.9 31.8Z" fill="#2E276C"/>
<path d="M54.5996 32.6H48.4996C47.6996 32.6 47.0996 32 47.0996 31.2C47.0996 30.4 47.6996 29.8 48.4996 29.8H54.5996C55.3996 29.8 55.9996 30.4 55.9996 31.2C55.9996 32 55.3996 32.6 54.5996 32.6Z" fill="#2E276C"/>
<path d="M46.8998 28.8C46.5998 28.8 46.3998 28.7 46.0998 28.6C45.3998 28.2 45.2998 27.3 45.6998 26.6L51.4998 17.8C51.8998 17.1 52.7998 17 53.4998 17.4C54.1998 17.8 54.2998 18.7 53.8998 19.4L47.9998 28.2C47.7998 28.6 47.2998 28.8 46.8998 28.8Z" fill="#2E276C"/>
<path d="M43.1 54.4C30.1 54.4 19.5 43.8 19.5 30.7C19.5 19.5 27.1 10 38 7.60001C38.8 7.40001 39.5 7.90001 39.7 8.70001C39.9 9.50001 39.4 10.2 38.6 10.4C29 12.5 22.3 20.9 22.3 30.7C22.3 42.2 31.6 51.5 43.1 51.5C54.6 51.5 63.9 42.2 63.9 30.7C63.9 20.9 57 12.4 47.4 10.4C46.6 10.2 46.2 9.50001 46.3 8.70001C46.5 8.00001 47.3 7.50001 48 7.60001C58.8 9.90001 66.7 19.6 66.7 30.7C66.7 43.8 56.1 54.4 43.1 54.4Z" fill="#2E276C"/>
<path d="M43.1002 10.1C42.3002 10.1 41.7002 9.49998 41.7002 8.69998V4.49998C41.7002 3.69998 42.3002 3.09998 43.1002 3.09998C43.9002 3.09998 44.5002 3.69998 44.5002 4.49998V8.59998C44.5002 9.49998 43.9002 10.1 43.1002 10.1Z" fill="#2E276C"/>
<path d="M46.4996 2.8H39.4996C38.6996 2.8 38.0996 2.2 38.0996 1.4C38.0996 0.6 38.7996 0 39.5996 0H46.5996C47.3996 0 47.9996 0.6 47.9996 1.4C47.9996 2.2 47.2996 2.8 46.4996 2.8Z" fill="#2E276C"/>
<path d="M43.0998 34C44.6462 34 45.8998 32.7464 45.8998 31.2C45.8998 29.6536 44.6462 28.4 43.0998 28.4C41.5534 28.4 40.2998 29.6536 40.2998 31.2C40.2998 32.7464 41.5534 34 43.0998 34Z" fill="#2E276C"/>
</g>
<defs>
<clipPath id="clip0">
<rect width="66.7" height="54.4" fill="white"/>
</clipPath>
</defs>
</svg>
