<svg width="15" height="24" viewBox="0 0 15 24" fill="none" xmlns="http://www.w3.org/2000/svg">
<path d="M10.0954 0.132429C11.6442 0.132429 13.2407 0.38934 13.3081 0.38934L14.7194 0.625064V6.62408H11.3721C11.1223 6.62408 11.0073 6.66646 10.9848 6.68765C10.9848 6.68765 10.9624 6.7724 10.9624 6.94456V7.63319H14.8597L13.7654 14.4294H10.9624V23.0532H3.44276V14.4347H0.140292V7.63849H3.44276V6.54198C3.44276 2.64857 6.06341 0.132429 10.0954 0.132429ZM1.84905 12.8217H5.15152V21.4455H9.25365V12.8217H12.284L12.876 9.25147H9.25365V6.94986C9.25365 5.95929 9.75589 5.01375 11.3721 5.01375H13.0135V1.98113C13.0135 1.98113 11.532 1.74541 10.0982 1.74541C7.1128 1.74541 5.15152 3.44315 5.15152 6.54198V9.25147H1.84905V12.8217ZM10.0954 0C5.97082 0 3.30247 2.56647 3.30247 6.54198V7.50606H0.140292C0.0617284 7.50606 0 7.56433 0 7.63849V14.4347C0 14.5062 0.0617284 14.5672 0.140292 14.5672H3.30247V23.0585C3.30247 23.1326 3.3642 23.1909 3.44276 23.1909H10.9624C11.041 23.1909 11.1027 23.1326 11.1027 23.0585V14.5672H13.7654C13.8356 14.5672 13.8945 14.5195 13.9029 14.4559L14.9944 7.67292C14.9972 7.66233 15 7.65173 15 7.64114C15 7.56698 14.9383 7.50871 14.8597 7.50871H14.8569H11.1027V6.95251C11.1027 6.87835 11.1083 6.82538 11.1111 6.78565C11.156 6.77505 11.2374 6.76181 11.3721 6.76181H14.7222C14.8008 6.76181 14.8625 6.70354 14.8625 6.62938V0.627712C14.8625 0.564146 14.8148 0.508526 14.7475 0.497932L13.3361 0.262209C13.3277 0.25956 13.3193 0.25956 13.3109 0.25956C13.2997 0.25956 13.2464 0.251615 13.165 0.24102C12.7245 0.180103 11.3861 0 10.0954 0ZM1.98934 9.3839H5.15152C5.23008 9.3839 5.29181 9.32563 5.29181 9.25147V6.54198C5.29181 3.62325 7.08754 1.87784 10.0954 1.87784C11.271 1.87784 12.4944 2.0394 12.8704 2.09502V4.88132H11.3692C9.93266 4.88132 9.11055 5.63617 9.11055 6.94986V9.25147C9.11055 9.32563 9.17228 9.3839 9.25084 9.3839H12.7104L12.1633 12.6893H9.25365C9.17508 12.6893 9.11336 12.7476 9.11336 12.8217V21.3131H5.29181V12.8217C5.29181 12.7476 5.23008 12.6893 5.15152 12.6893H1.98934V9.3839Z" fill="#A5B4CB"/>
</svg>
