<svg width="24" height="23" viewBox="0 0 24 23" fill="none" xmlns="http://www.w3.org/2000/svg">
<path d="M16.7898 23H7.20753C3.23263 23 0 19.8995 0 16.0902V6.90722C0 3.09794 3.23263 0 7.20753 0H16.7898C20.7647 0 24 3.09794 24 6.90722V16.0902C24 19.8995 20.7647 23 16.7898 23ZM7.20753 2.16495C4.47781 2.16495 2.25908 4.29124 2.25908 6.90722V16.0902C2.25908 18.7062 4.4805 20.8351 7.21022 20.8351H16.7925C19.5222 20.8351 21.7436 18.7062 21.7436 16.0902V6.90722C21.7436 4.29124 19.5222 2.16237 16.7925 2.16237H7.20753V2.16495Z" fill="#A5B4CB"/>
</svg>
