<svg width="43" height="24" viewBox="0 0 43 24" fill="none" xmlns="http://www.w3.org/2000/svg">
<path d="M15.6084 9.76573C15.7045 9.48583 15.7245 9.22958 15.7525 8.97333C15.8166 8.40564 15.8246 7.83401 15.7926 7.26632C15.7565 6.63949 15.7846 6.00872 15.6685 5.38584C15.6364 5.22815 15.5804 5.0744 15.5524 4.91277C15.5123 4.70382 15.3842 4.57373 15.2041 4.47517C14.9999 4.36479 14.7837 4.28594 14.5555 4.23469C13.919 4.09277 13.4866 3.72613 13.3505 3.09142C13.2344 2.54345 13.3545 2.03489 13.7548 1.61306C14.4874 0.844316 15.4082 0.434317 16.4411 0.229317C17.41 0.0400871 18.3948 0.0203756 19.3756 0.00854875C20.0162 0.000664153 20.6527 0.0203756 21.2893 0.0558563C22.13 0.103164 22.9627 0.205664 23.7594 0.481624C24.8724 0.867969 25.5209 1.64854 25.7331 2.77998C25.8732 3.52508 25.8772 4.27806 25.8492 5.03498C25.7972 6.41084 25.7651 7.7867 25.7852 9.16256C25.7892 9.41487 25.8092 9.679 25.9133 9.93525C26.1735 9.81698 26.3697 9.63564 26.5618 9.45429C27.2304 8.82747 27.7588 8.0942 28.2713 7.34122C28.9919 6.2768 29.4923 5.10594 29.9527 3.91931C30.217 3.24517 30.4492 2.55921 30.6774 1.87326C30.9336 1.10056 31.474 0.580182 32.2307 0.28451C32.651 0.122875 33.0954 0.0479717 33.5518 0.0479717C35.7017 0.0400871 37.8515 0.0203756 39.9974 0.0164333C40.4978 0.0164333 41.0022 0.0597986 41.4826 0.21749C42.4194 0.52499 42.9959 1.30556 42.9999 2.27143C43.0039 2.93768 42.8158 3.56844 42.6036 4.19133C42.1152 5.61449 41.3785 6.91545 40.5418 8.16516C39.9373 9.06795 39.2447 9.90371 38.5641 10.7474C37.9276 11.5358 37.251 12.2888 36.6865 13.1285C36.5864 13.2744 36.4863 13.4242 36.4183 13.5976C36.6985 13.9209 37.0068 14.2126 37.3231 14.4965C38.4961 15.5451 39.6931 16.5701 40.8021 17.6898C41.3265 18.218 41.855 18.7502 42.2833 19.3573C42.6837 19.925 42.9559 20.54 42.9599 21.2496C42.9639 21.9671 42.6877 22.5585 42.1632 23.0434C41.6228 23.5441 40.9582 23.8082 40.2416 23.9501C40.0414 23.9895 39.8412 23.9974 39.637 23.9974C37.6513 23.9974 35.6696 24.0053 33.6839 23.9935C32.4349 23.9856 31.2939 23.6111 30.257 22.933C29.4363 22.3969 28.6916 21.7621 27.939 21.1393C27.4786 20.7608 27.0142 20.3823 26.5018 20.0748C26.3416 19.9763 26.1775 19.8896 25.9813 19.8265C25.8692 20.0709 25.8372 20.335 25.8252 20.5952C25.8052 21.0446 25.7771 21.498 25.7731 21.9474C25.7691 22.3535 25.585 22.7044 25.3608 23.0316C24.9845 23.5835 24.432 23.8476 23.7834 23.9541C23.5312 23.9974 23.275 23.9974 23.0188 23.9974C22.3582 23.9974 21.6976 23.9935 21.0331 23.9974C19.1394 24.0093 17.3259 23.6387 15.5804 22.9251C14.1351 22.3377 12.822 21.5256 11.609 20.5558C10.2558 19.4717 9.0828 18.2141 8.01388 16.8619C6.50859 14.9499 5.19947 12.888 3.99443 10.7631C3.28582 9.51737 2.62125 8.25189 1.98871 6.97064C1.36017 5.69728 0.759653 4.40815 0.211181 3.09931C-0.057049 2.45672 -0.0970834 1.80624 0.251216 1.17547C0.583501 0.576239 1.09994 0.209606 1.78854 0.0992216C2.18087 0.0361448 2.57721 0.012491 2.97756 0.012491C4.78711 0.0164333 6.60067 -0.0269319 8.41022 0.0282602C9.61526 0.0676832 10.5881 0.619605 11.1486 1.71951C11.3568 2.1295 11.4648 2.5947 11.621 3.02835C12.0133 4.12036 12.4257 5.20844 12.9781 6.23344C13.5947 7.38064 14.3193 8.45689 15.2201 9.41093C15.3322 9.53314 15.4483 9.64352 15.6084 9.76573ZM39.9493 21.0407C39.8052 20.7845 39.613 20.5834 39.4249 20.3823C38.4881 19.381 37.4752 18.4546 36.4463 17.5439C35.8658 17.0314 35.2613 16.5425 34.7128 15.9906C34.3205 15.5964 33.9762 15.1706 33.764 14.6542C33.4958 13.9998 33.4277 13.3453 33.6759 12.6673C33.8 12.3322 33.9562 12.0128 34.1523 11.7172C34.5407 11.1337 34.9891 10.5976 35.4294 10.0535C36.2101 9.08766 37.0228 8.14545 37.7514 7.14016C38.5281 6.07574 39.2087 4.95219 39.7011 3.73008C39.8092 3.46594 39.9133 3.20181 39.9573 2.91796C39.7011 2.83912 33.9402 2.84306 33.3677 2.91796C33.2996 2.98893 33.2916 3.09142 33.2636 3.1821C32.639 5.21238 31.8504 7.16776 30.6573 8.94574C30.0728 9.81698 29.4603 10.6646 28.6957 11.3978C28.1912 11.8788 27.6468 12.3085 26.9942 12.5766C26.3456 12.8447 25.6731 12.9314 24.9925 12.7461C24.1117 12.5056 23.5753 11.8906 23.247 11.0864C22.9747 10.4202 22.9107 9.71054 22.8907 9.00093C22.8666 8.18093 22.9067 7.35699 22.9147 6.53699C22.9227 5.54748 22.9547 4.55402 22.9267 3.5645C22.9227 3.43835 22.9107 3.31614 22.8586 3.20181C21.9499 2.77604 18.7431 2.76027 17.8583 3.11114C17.8503 3.16239 17.8904 3.18998 17.9144 3.22546C18.2907 3.80498 18.4869 4.44363 18.5589 5.11777C18.651 6.00084 18.679 6.88786 18.6991 7.77487C18.7071 8.14545 18.683 8.51208 18.663 8.88266C18.623 9.57256 18.5149 10.2467 18.2907 10.9011C18.1426 11.3348 17.9264 11.729 17.5781 12.0365C17.1417 12.4228 16.6253 12.6081 16.0448 12.6436C15.3682 12.683 14.7317 12.5608 14.1472 12.2139C13.4946 11.8236 12.9741 11.2914 12.5097 10.7079C11.1606 9.00881 10.0837 7.15593 9.315 5.13353C9.04277 4.42392 8.79055 3.70642 8.56636 2.9771C8.42624 2.92191 8.29412 2.85883 8.13399 2.85883C6.60067 2.86277 5.06735 2.86277 3.53404 2.86277C3.46998 2.86277 3.39792 2.83912 3.34587 2.89037C3.31785 2.9495 3.34587 2.98498 3.36589 3.02835C3.58608 3.50537 3.79826 3.98633 4.02246 4.4594C4.80313 6.09151 5.62383 7.69997 6.50859 9.28083C7.50144 11.047 8.56236 12.7698 9.76739 14.4058C10.7963 15.8053 11.9292 17.1142 13.2744 18.2338C14.4234 19.1918 15.6765 19.9763 17.0937 20.4967C18.1066 20.8672 19.1555 21.0801 20.2284 21.1393C21.0531 21.1866 21.8818 21.159 22.7065 21.159C22.7866 21.159 22.8706 21.1787 22.9467 21.1235C22.9827 21.0368 22.9627 20.95 22.9667 20.8594C22.9747 20.5361 22.9627 20.2089 23.0108 19.8856C23.1028 19.2272 23.323 18.6241 23.7354 18.0958C24.3239 17.3349 25.1006 16.9289 26.0854 16.9762C26.6579 17.0038 27.1824 17.197 27.6868 17.4611C28.4474 17.8593 29.108 18.3954 29.7726 18.9276C30.3931 19.4283 31.0016 19.9487 31.6462 20.4218C32.3068 20.9067 33.0514 21.1511 33.8681 21.155C35.7257 21.1629 37.5793 21.159 39.4369 21.159C39.605 21.159 39.7692 21.1235 39.9493 21.0407Z" fill="#A5B4CB"/>
</svg>
