<svg width="62" height="53" viewBox="0 0 62 53" fill="none" xmlns="http://www.w3.org/2000/svg">
<g clip-path="url(#clip0)">
<path d="M60.5004 52.5H1.20039C0.700391 52.5 0.200391 52.2 0.000390626 51.7C-0.199609 51.2 -0.0996094 50.7 0.300391 50.3L15.1004 36C15.3004 35.8 15.7004 35.7 16.0004 35.6L20.1004 35.7C20.8004 35.7 21.3004 36.3 21.3004 37C21.3004 37.7 20.7004 38.2 20.1004 38.2L16.6004 38.1L4.30039 50H57.4004L45.2004 38.1H41.6004C40.9004 38.1 40.4004 37.5 40.4004 36.9C40.4004 36.3 41.0004 35.7 41.6004 35.7H45.7004C46.0004 35.7 46.3004 35.8 46.6004 36.1L51.3004 40.7L61.3004 50.4C61.7004 50.8 61.8004 51.3 61.6004 51.8C61.4004 52.1 61.0004 52.5 60.5004 52.5Z" fill="#2E276C"/>
<path d="M30.8997 0C35.8997 0.1 40.0997 1.9 43.4997 5.6C45.6997 8 47.0997 10.9 47.6997 14.2C47.8997 15.3 47.9997 16.5 47.8997 17.7C47.7997 19 47.4997 20.2 47.0997 21.4C46.1997 24.2 44.7997 26.8 43.2997 29.4C40.7997 33.8 37.8997 37.9 34.7997 41.9C33.9997 43 33.0997 44.1 32.1997 45.1C31.9997 45.3 31.8997 45.5 31.6997 45.7C31.2997 46.2 30.3997 46.2 29.8997 45.7C29.2997 45 28.6997 44.3 28.1997 43.6C25.5997 40.3 23.0997 37 20.8997 33.5C18.9997 30.5 17.0997 27.5 15.6997 24.2C14.9997 22.5 14.2997 20.8 13.9997 19C13.7997 17.8 13.7997 16.7 13.8997 15.5C14.0997 13.8 14.4997 12.2 15.0997 10.6C17.3997 5.4 21.2997 2 26.7997 0.6C28.1997 0.1 29.4997 0 30.8997 0ZM30.7997 42.8C30.8997 42.6 30.9997 42.5 31.0997 42.4C31.7997 41.5 32.4997 40.7 33.0997 39.8C35.8997 36.2 38.4997 32.5 40.7997 28.6C42.1997 26.2 43.4997 23.8 44.4997 21.2C44.8997 20.1 45.1997 19.1 45.2997 17.9C45.3997 16.8 45.2997 15.6 45.0997 14.5C44.5997 11.7 43.3997 9.3 41.4997 7.2C38.9997 4.6 35.9997 3 32.3997 2.6C30.1997 2.3 27.9997 2.5 25.8997 3.3C21.8997 4.8 18.9997 7.5 17.2997 11.4C15.9997 14.5 15.6997 17.6 16.7997 20.8C17.5997 23.2 18.7997 25.4 19.9997 27.6C22.1997 31.4 24.6997 35 27.2997 38.6C28.5997 40 29.6997 41.4 30.7997 42.8ZM31.0997 22.9C27.1997 22.9 23.8997 19.7 23.9997 15.7C24.0997 11.7 27.3997 8.6 31.1997 8.7C34.9997 8.8 38.2997 12 38.1997 16C37.9997 19.8 34.8997 22.9 31.0997 22.9ZM35.6997 15.8C35.7997 13.6 33.9997 11.1 30.9997 11.1C28.2997 11.1 26.4997 13.3 26.3997 15.7C26.3997 18.2 28.2997 20.4 30.9997 20.4C33.8997 20.4 35.7997 18 35.6997 15.8Z" fill="#2E276C"/>
</g>
<defs>
<clipPath id="clip0">
<rect width="61.7" height="52.5" fill="white"/>
</clipPath>
</defs>
</svg>
